<svg width="44" height="29" viewBox="0 0 44 29" fill="none" xmlns="http://www.w3.org/2000/svg">
<path d="M21.1167 29H9L10.8834 26H23L21.1167 29Z" fill="black"/>
<path d="M42.2466 23.4077H42.4477C42.6942 23.4077 42.8176 23.3325 42.8176 23.1824C42.8176 23.0377 42.6942 22.9652 42.4477 22.9652H42.2466V23.4077ZM41.8767 22.6677H42.4638C42.9516 22.6677 43.1956 22.8284 43.1956 23.1502C43.1956 23.3433 43.0962 23.4748 42.8981 23.5442C42.9998 23.5818 43.0695 23.6395 43.1071 23.7172C43.1445 23.7951 43.1661 23.9196 43.1715 24.0914C43.1715 24.1716 43.1848 24.2468 43.2117 24.3163H42.8417C42.8203 24.2523 42.8095 24.177 42.8095 24.0914C42.8042 23.925 42.7775 23.818 42.7292 23.7695C42.6809 23.7214 42.579 23.697 42.4234 23.697H42.2466V24.3163H41.8767V22.6677ZM43.3724 22.6193C43.1313 22.3781 42.839 22.2574 42.4959 22.2574C42.1528 22.2574 41.8606 22.3781 41.6193 22.6193C41.3781 22.8605 41.2575 23.1529 41.2575 23.4961C41.2575 23.8393 41.3781 24.1329 41.6193 24.3768C41.8606 24.6208 42.1528 24.7428 42.4959 24.7428C42.839 24.7428 43.1313 24.6208 43.3724 24.3768C43.6139 24.1329 43.7345 23.8393 43.7345 23.4961C43.7345 23.1529 43.6139 22.8605 43.3724 22.6193ZM41.4384 22.4385C41.7305 22.1462 42.0831 22 42.4959 22C42.9088 22 43.2626 22.1462 43.5574 22.4385C43.8524 22.7306 43.9999 23.0831 43.9999 23.4961C44.0051 23.9091 43.8591 24.2628 43.5615 24.5579C43.2639 24.8526 42.9088 25 42.4959 25C42.0831 25 41.7305 24.8526 41.4384 24.5579C41.146 24.2628 41 23.9091 41 23.4961C41 23.0831 41.146 22.7306 41.4384 22.4385Z" fill="black"/>
<path d="M33.8661 25H23L33.1339 3H44L33.8661 25Z" fill="black"/>
<path d="M10.8661 25H0L10.1339 3H21L10.8661 25Z" fill="black"/>
<path d="M33.1167 3H21L22.8834 0H35L33.1167 3Z" fill="black"/>
</svg>
